Coordinates
version=1
nRows=17
nColumns=24
inDegrees=yes

Units are S.I. units (second, meters, Newtons, ...)
Angles are in degrees.

endheader
time	pelvis_tilt	pelvis_list	pelvis_rotation	pelvis_tx	pelvis_ty	pelvis_tz	hip_flexion_r	hip_adduction_r	hip_rotation_r	knee_angle_r	ankle_angle_r	subtalar_angle_r	mtp_angle_r	hip_flexion_l	hip_adduction_l	hip_rotation_l	knee_angle_l	ankle_angle_l	subtalar_angle_l	mtp_angle_l	lumbar_extension	lumbar_bending	lumbar_rotation
      5.71000000	     14.28648078	     -7.87417917	      4.03918845	      1.47074486	      0.92042760	     -0.24749228	    -31.20399315	     12.74411056	      1.77282542	     -7.71073982	     23.29326468	      6.01862827	      0.00000000	      9.93111167	     -6.19499501	      3.39590677	     -6.34731964	     11.81459896	     10.21826329	      0.00000000	    -29.95598892	      8.48968499	      3.47450571
      5.71500000	     14.39078532	     -7.66240251	      3.96787372	      1.47752005	      0.91993723	     -0.24765419	    -31.54229164	     12.43842546	      1.53607056	     -8.21145334	     23.26801168	      6.68870517	      0.00000000	      9.78093062	     -5.90729818	      3.55542799	     -6.32434759	     11.55220489	      9.85614841	      0.00000000	    -30.07377429	      8.23131870	      3.43995187
      5.72000000	     14.35416269	     -7.46929463	      3.80739761	      1.48435895	      0.91940273	     -0.24768877	    -31.70196412	     12.11329145	      1.44783679	     -8.78637364	     23.19823566	      7.20361511	      0.00000000	      9.78220311	     -5.64112605	      3.65859663	     -6.43738674	     11.32357015	      9.43486663	      0.00000000	    -30.02925864	      7.94313995	      3.47213563
      5.72500000	     14.35956009	     -7.21546455	      3.68667390	      1.49122190	      0.91894997	     -0.24778147	    -31.88753540	     11.74463961	      1.24700691	     -9.38977769	     23.11102085	      7.82261822	      0.00000000	      9.75178582	     -5.30531182	      3.79227790	     -6.67745334	     11.11416700	      9.00248099	      0.00000000	    -30.02401158	      7.61285502	      3.44391864
      5.73000000	     14.45835277	     -6.89180725	      3.64928401	      1.49807665	      0.91859911	     -0.24796889	    -32.14666909	     11.34837215	      0.88585741	    -10.02893170	     22.99916426	      8.50338042	      0.00000000	      9.63681060	     -4.88739770	      3.99132837	     -7.02568630	     10.94118371	      8.56358864	      0.00000000	    -30.11910588	      7.24199658	      3.31408075
      5.73500000	     14.43271749	     -6.55846520	      3.50561235	      1.50503529	      0.91823447	     -0.24804643	    -32.25955096	     10.89061604	      0.67524175	    -10.71545485	     22.84516244	      9.10568298	      0.00000000	      9.64834288	     -4.46368531	      4.10743382	     -7.49662852	     10.76842721	      8.09581638	      0.00000000	    -30.06890697	      6.81700518	      3.26554046
      5.74000000	     14.50295777	     -6.15843443	      3.47302099	      1.51198019	      0.91792914	     -0.24826644	    -32.45048716	     10.41930519	      0.27905466	    -11.43227643	     22.70198587	      9.83654281	      0.00000000	      9.58348017	     -3.95330817	      4.34998732	     -8.07843888	     10.65886492	      7.61889134	      0.00000000	    -30.11759373	      6.36756854	      3.11400081
      5.74500000	     14.50956128	     -5.74895561	      3.37977580	      1.51900346	      0.91764529	     -0.24843996	    -32.54902811	      9.90476970	     -0.06513558	    -12.21053689	     22.49970677	     10.53601011	      0.00000000	      9.57473029	     -3.43437998	      4.53556020	     -8.73714966	     10.54846319	      7.13410160	      0.00000000	    -30.08756778	      5.88527972	      3.00298111
      5.75000000	     14.43635793	     -5.32480182	      3.21721905	      1.52612414	      0.91734885	     -0.24850203	    -32.54240034	      9.34756451	     -0.28871224	    -13.04125590	     22.26674386	     11.12528072	      0.00000000	      9.64160274	     -2.90817851	      4.65320865	     -9.47411007	     10.46052671	      6.69255963	      0.00000000	    -29.95429862	      5.34346126	      2.95734496
      5.75500000	     14.50040184	     -4.84097193	      3.24434396	      1.53319223	      0.91714032	     -0.24890238	    -32.65872732	      8.80312708	     -0.86565760	    -13.88928828	     21.97563118	     12.00460451	      0.00000000	      9.59226712	     -2.27960015	      4.95433670	    -10.28668215	     10.35526877	      6.16190301	      0.00000000	    -29.97421644	      4.85278538	      2.70658191
      5.76000000	     14.41137418	     -4.37355072	      3.07473279	      1.54041069	      0.91689627	     -0.24901296	    -32.58206143	      8.18536349	     -1.14038590	    -14.82765146	     21.66676680	     12.66830896	      0.00000000	      9.66620196	     -1.69968098	      5.04683257	    -11.13185475	     10.29034660	      5.73043273	      0.00000000	    -29.80656726	      4.26291774	      2.68236911
      5.76500000	     14.35982764	     -3.88868160	      2.96904356	      1.54761242	      0.91669732	     -0.24927252	    -32.51399148	      7.56176015	     -1.56979205	    -15.81364897	     21.30460955	     13.50806927	      0.00000000	      9.70559380	     -1.08458355	      5.20183890	    -12.01580760	     10.20393866	      5.27308506	      0.00000000	    -29.68050993	      3.70374384	      2.58192963
      5.77000000	     14.40594115	     -3.35575583	      3.02746754	      1.55479419	      0.91654433	     -0.24977439	    -32.54015954	      6.96766911	     -2.18898294	    -16.80050685	     20.86549702	     14.38051670	      0.00000000	      9.65713739	     -0.38595096	      5.55847681	    -12.94825149	     10.11888816	      4.77469320	      0.00000000	    -29.66117458	      3.18327631	      2.27171353
      5.77500000	     14.33228595	     -2.85524978	      2.89425900	      1.56205435	      0.91638649	     -0.25002757	    -32.38823674	      6.30165232	     -2.57845483	    -17.89922057	     20.41537209	     15.18453976	      0.00000000	      9.69730611	      0.24378694	      5.65320761	    -13.87076205	     10.04952153	      4.37825431	      0.00000000	    -29.50283931	      2.59597161	      2.17807323
      5.78000000	     14.24961546	     -2.34304610	      2.76480889	      1.56938668	      0.91624923	     -0.25032498	    -32.19886861	      5.61276324	     -2.99464765	    -19.04975120	     19.89250344	     16.00779218	      0.00000000	      9.71926965	      0.88913358	      5.77982414	    -14.76823101	     10.01009428	      4.01932374	      0.00000000	    -29.31619363	      2.00053273	      2.11597322
      5.78500000	     14.18050070	     -1.82518278	      2.66499497	      1.57670729	      0.91613255	     -0.25067277	    -31.99496110	      4.92286459	     -3.44383298	    -20.24127171	     19.32096742	     16.84826465	      0.00000000	      9.72373845	      1.54705893	      5.91834585	    -15.67524079	      9.97369139	      3.65200581	      0.00000000	    -29.14625148	      1.41574690	      2.02066384
      5.79000000	     14.11641760	     -1.30323164	      2.58281445	      1.58404157	      0.91604127	     -0.25105981	    -31.77042329	      4.22686968	     -3.90957918	    -21.46791606	     18.68945152	     17.67461085	      0.00000000	      9.71106982	      2.21221712	      6.04750801	    -16.57498808	      9.94591669	      3.29026175	      0.00000000	    -28.97636179	      0.83236779	      1.91549293
